<?xml version="1.0" encoding="utf-8"?>
<!-- Generator: Adobe Illustrator 27.5.0, SVG Export Plug-In . SVG Version: 6.00 Build 0)  -->
<svg version="1.1" xmlns="http://www.w3.org/2000/svg" xmlns:xlink="http://www.w3.org/1999/xlink" x="0px" y="0px"
	 viewBox="0 0 500 500" style="enable-background:new 0 0 500 500;" xml:space="preserve">
<g id="BACKGROUND">
	<rect id="XMLID_1863_" style="fill:#EDEAE4;" width="500" height="500"/>
</g>
<g id="Design">
	<g>
		<g>
			<ellipse style="fill:#E8BEC5;" cx="250" cy="394.788" rx="229.14" ry="42.594"/>
			<g>
				<ellipse style="fill:#D6A2AB;" cx="351.578" cy="394.788" rx="75.73" ry="16.374"/>
				<ellipse style="fill:#D6A2AB;" cx="143.633" cy="394.788" rx="75.73" ry="16.374"/>
				<ellipse style="fill:#D6A2AB;" cx="78.212" cy="397.427" rx="41.784" ry="11.064"/>
				<path style="fill:#A2B4C9;" d="M412.419,194.493c-42.823-24.994-42.267,3.06-109.179-43.452
					c-68.541-47.645-166.174-56.641-222.376,2.003C17.772,218.878,33.283,341.613,99.6,353.713l65.359,5.508
					c35.287-15.487,56.203-39.318,105.496-39.203c50.111,0.117,40.106,35.653,102.087,35.653
					C456.464,355.671,485.568,237.187,412.419,194.493z"/>
				<path style="fill:#201C1E;" d="M166.453,359.941l35.592-16.483c6.57-3.043,6.98-12.228,0.707-15.844l-60.222-2.165
					l-35.219,29.631L166.453,359.941z"/>
				<rect x="83.934" y="109.812" style="fill:#201C1E;" width="114.45" height="168.186"/>
				<rect x="87.135" y="114.368" style="fill:#3A5559;" width="108.046" height="163.63"/>
				<linearGradient id="SVGID_1_" gradientUnits="userSpaceOnUse" x1="128.2515" y1="186.1097" x2="94.4508" y2="287.919">
					<stop  offset="0.0028" style="stop-color:#38455A"/>
					<stop  offset="1" style="stop-color:#A2B4C9"/>
				</linearGradient>
				<rect x="87.135" y="189.992" style="fill:url(#SVGID_1_);" width="50.437" height="88.006"/>
				<g>
					<rect x="138.89" y="166.25" style="fill:#201C1E;" width="156.09" height="95.247"/>
					<rect x="141.159" y="167.634" style="fill:#504148;" width="151.554" height="92.479"/>
					<rect x="143.633" y="170.544" style="fill:#38455A;" width="146.605" height="86.659"/>
					<rect x="202.708" y="261.497" style="fill:#504148;" width="28.455" height="11.812"/>
					<polygon style="fill:#201C1E;" points="231.163,261.497 202.708,268.773 202.708,261.497 					"/>
				</g>
				<g>
					<polygon style="fill:#F4DC34;" points="141.398,253.635 140.918,252.815 181.982,228.729 246.66,228.781 290.455,251.256 
						290.021,252.101 246.329,229.678 182.239,229.678 					"/>
				</g>
				<rect x="144.772" y="251.678" style="fill:#576C8D;" width="145.466" height="5.525"/>
				<g>
					<path d="M326.489,370.185c-12.356,0-24.436-7.117-30.341-17.989c-1.161-2.138-2.102-4.419-3.013-6.626
						c-1.122-2.723-2.285-5.542-3.858-8.058c-4.364-6.98-11.718-11.536-18.828-15.941c-7.627-4.722-15.513-9.607-19.808-17.516
						c-3.071-5.653-3.931-12.473-2.359-18.715l1.058,0.269c-1.504,5.977-0.681,12.511,2.261,17.925
						c4.157,7.652,11.918,12.46,19.424,17.108c7.217,4.471,14.679,9.093,19.178,16.288c1.622,2.597,2.802,5.457,3.944,8.222
						c0.898,2.179,1.829,4.432,2.962,6.521c5.898,10.858,18.13,17.9,30.511,17.396l0.038,1.093
						C327.27,370.179,326.877,370.185,326.489,370.185z"/>
				</g>
				<g>
					<rect x="90.95" y="277.998" style="fill:#4D3742;" width="334.574" height="9.073"/>
					<rect x="90.95" y="277.998" style="fill:#201C1E;" width="334.574" height="2.732"/>
				</g>
				<g>
					<polygon style="fill:#3D5160;" points="321.119,288.912 333.546,397.427 405.268,397.427 415.173,288.912 					"/>
					
						<linearGradient id="SVGID_00000016789036379273906560000000561935953387495576_" gradientUnits="userSpaceOnUse" x1="408.8152" y1="315.4846" x2="284.0687" y2="315.4846">
						<stop  offset="0.0028" style="stop-color:#5E7398"/>
						<stop  offset="1" style="stop-color:#4D3742"/>
					</linearGradient>
					<polygon style="fill:url(#SVGID_00000016789036379273906560000000561935953387495576_);" points="323.076,305.996 
						325.249,324.973 413.613,305.996 					"/>
					<g>
						<path style="fill:#201C1E;" d="M353.766,369.917c0,1.712,1.388,3.099,3.099,3.099h22.561c1.712,0,3.099-1.388,3.099-3.099
							v-0.984h-28.76V369.917z"/>
						<path style="fill:#201C1E;" d="M379.426,341.594c1.712,0,3.099-1.388,3.099-3.1v-0.984h-28.76v0.984
							c0,1.712,1.388,3.1,3.099,3.1H379.426z"/>
						<polygon style="fill:#201C1E;" points="407.952,368.024 330.179,368.024 330.273,368.842 407.878,368.842 						"/>
						<polygon style="fill:#201C1E;" points="326.581,336.601 326.674,337.419 410.745,337.419 410.82,336.601 						"/>
						<path style="fill:#201C1E;" d="M379.426,310.171c1.712,0,3.099-1.388,3.099-3.1v-0.984h-28.76v0.984
							c0,1.712,1.388,3.1,3.099,3.1H379.426z"/>
						<polygon style="fill:#201C1E;" points="322.887,304.347 323.076,305.996 413.613,305.996 413.692,305.131 						"/>
					</g>
				</g>
				<path style="fill:#201C1E;" d="M189.601,383.83c-0.098-0.294-0.368-0.58-0.798-0.856c-0.005-0.005-0.035-0.037-0.035-0.037
					s-1.103-4.218-19.41-3.414l-1.856,0.013c-4.253,0.029-7.732-3.38-7.789-7.632l-0.382-28.255l-11.939,0.082l0.38,28.152
					c0.058,4.293-3.39,7.812-7.683,7.841l-5.051,0.035l0,0l0,0l-4.146,0.029c-9.276,0.064-13.431,2.246-15.743,4.771
					c0,0-12.144,16.333-8.538,16.308c3.434-0.024,11.355-6.088,17.966-11.71l15.835-0.109c-1.569,2.458-2.762,4.94-2.737,6.811
					c0.074,5.473,4.747,4.732,4.747,4.732c3.553-4.297,6.432-7.776,8.76-10.588c0.548-0.661,1.352-1.038,2.211-1.044l28.177-0.194
					c7.366,5.293,15.957,10.887,19.336,10.863C204.014,399.607,192.777,387.255,189.601,383.83z"/>
				<g>
					<g>
						<polygon style="fill:#3D5160;" points="87.338,225.459 121.855,225.459 124.706,233.079 114.729,243.751 103.122,247.397 
							93.937,242.604 85.815,235.728 						"/>
						<g>
							<path style="fill:#3A5559;" d="M156.192,248.14c-2.77-12.459-21.334-12.962-21.334-12.962
								c-0.029-15.235-8.912-16.755-8.912-16.755s-24.575,0.282-32.676,0.012c-8.102-0.27-10.262,4.051-10.262,4.051l11.882,21.874
								l71.563,115.581l7.021-3.241C173.475,356.7,158.566,258.822,156.192,248.14z M119.757,232.601l-13.68,11.15l-15.148-10.826
								c-2.489-1.779-0.952-5.096,2.373-5.123l23.837-0.193C120.383,227.584,122.039,230.741,119.757,232.601z"/>
							<path style="fill:#60666A;" d="M148.9,250.031l7.246-2.06c-2.903-12.29-21.288-12.792-21.288-12.792l-5.941,4.946
								L148.9,250.031z"/>
							<path style="fill:#4C7077;" d="M126.028,218.439c-0.051-0.011-0.082-0.017-0.082-0.017s-24.575,0.282-32.676,0.012
								c-8.102-0.27-10.262,4.051-10.262,4.051l0.7,1.288c10.737-0.236,39.267-1.288,39.267-1.288L126.028,218.439z"/>
							<path style="fill:#64959D;" d="M148.9,250.031c-3.781-12.962-18.363-11.072-18.363-11.072
								c0-13.503-7.561-16.473-7.561-16.473H83.008c-7.561,4.591,1.89,17.013,1.89,17.013c-9.722,0.81-9.722,12.962-9.722,12.962
								l29.705,91.817c-3.511,4.861,2.43,10.802,2.43,10.802l59.141,4.861C166.453,359.941,152.681,262.993,148.9,250.031z
								 M119.757,232.601l-8.676,7.072c-2.955,2.408-7.156,2.541-10.257,0.325l-9.896-7.072c-2.489-1.779-0.952-5.096,2.373-5.123
								l23.837-0.193C120.383,227.584,122.039,230.741,119.757,232.601z"/>
							<path style="fill:#201C1E;" d="M89.558,264.961h45.279c3.523,0,6.172-1.579,5.5-3.28l-0.634-1.603H83.008l1.05,2.654
								C84.57,264.026,86.876,264.961,89.558,264.961z"/>
							<path style="fill:#201C1E;" d="M93.888,277.878h45.279c3.523,0,6.173-1.579,5.5-3.279l-0.634-1.603H87.338l1.05,2.654
								C88.9,276.944,91.206,277.878,93.888,277.878z"/>
							<path style="fill:#3A5559;" d="M89.558,263.414h45.279c3.523,0,6.172-1.579,5.5-3.28l-0.634-1.603H83.008l1.05,2.654
								C84.57,262.48,86.876,263.414,89.558,263.414z"/>
							<path style="fill:#3A5559;" d="M93.888,276.332h45.279c3.523,0,6.173-1.579,5.5-3.28l-0.634-1.603H87.338l1.05,2.654
								C88.9,275.397,91.206,276.332,93.888,276.332z"/>
						</g>
						<g>
							<path style="fill:#3A5559;" d="M165.49,306.133l49.806-13.058c0,0,1.829,7.576-2.874,10.71
								c-4.702,3.135-44.876,14.908-44.876,14.908L165.49,306.133z"/>
							<polygon style="fill:#4C7077;" points="215.296,293.075 208.188,291.899 164.865,302.163 165.49,306.133 							"/>
						</g>
					</g>
					<g>
						<polygon style="fill:#3A5559;" points="169.198,331.501 208.77,310.632 208.77,302.145 207.346,302.145 207.346,309.772 
							168.534,330.24 						"/>
					</g>
				</g>
				<polygon style="fill:#4F757C;" points="104.882,344.278 161.493,346.23 102.902,338.157 				"/>
				<rect x="93.034" y="119.713" style="fill:#F4DC34;" width="89.077" height="17.138"/>
				<rect x="93.034" y="141.909" style="fill:#CDDD5E;" width="80.441" height="1.929"/>
				<rect x="93.034" y="147.817" style="fill:#CDDD5E;" width="80.441" height="1.929"/>
				<rect x="93.034" y="153.725" style="fill:#CDDD5E;" width="80.441" height="1.929"/>
				<rect x="93.034" y="159.633" style="fill:#CDDD5E;" width="80.441" height="1.929"/>
				<path style="fill:#3A5559;" d="M172.825,356.99l29.221-13.532c6.57-3.043,6.98-12.228,0.708-15.844l-31.791,12.675
					L172.825,356.99z"/>
				<rect x="191.612" y="273.309" style="fill:#201C1E;" width="50.646" height="4.688"/>
				<polygon style="fill:#201C1E;" points="376.965,267.403 294.98,261.497 294.98,166.25 376.965,155.654 				"/>
				<polygon style="fill:#38455A;" points="374.039,265.135 296.549,259.469 296.549,168.088 374.039,157.922 				"/>
				<rect x="152.418" y="175.798" style="fill:#F4DC34;" width="128.666" height="2.474"/>
				<g>
					<path style="fill:#F4DC34;" d="M266.104,217.902c-8.483,0-15.383-6.899-15.383-15.383c0-8.483,6.9-15.383,15.383-15.383
						c8.483,0,15.383,6.9,15.383,15.383C281.486,211.002,274.587,217.902,266.104,217.902z M266.104,187.941
						c-8.038,0-14.579,6.54-14.579,14.578c0,8.038,6.541,14.578,14.579,14.578c8.038,0,14.578-6.54,14.578-14.578
						C280.682,194.481,274.142,187.941,266.104,187.941z"/>
				</g>
				<g>
					<rect x="152.418" y="184.384" style="fill:#FFFFFF;" width="21.033" height="0.947"/>
				</g>
				<g>
					<rect x="152.418" y="189.518" style="fill:#FFFFFF;" width="21.033" height="0.947"/>
				</g>
				<path style="fill:#F4DC34;" d="M152.839,228.254v0.949h5.171v-0.949H152.839z M152.839,231.378h5.171v-0.949h-5.171V231.378z
					 M152.839,233.553h5.171v-0.949h-5.171V233.553z M152.839,235.728h5.171v-0.949h-5.171V235.728z"/>
				
					<linearGradient id="SVGID_00000051379817276400559670000010094310176245392827_" gradientUnits="userSpaceOnUse" x1="336.4369" y1="209.7032" x2="399.2233" y2="265.0667">
					<stop  offset="0.0028" style="stop-color:#38455A"/>
					<stop  offset="1" style="stop-color:#A2B4C9"/>
				</linearGradient>
				<polygon style="fill:url(#SVGID_00000051379817276400559670000010094310176245392827_);" points="374.039,157.922 
					296.549,259.469 374.039,265.135 				"/>
				<g>
					<polygon style="fill:#F4DC34;" points="368.909,259.338 302.91,255.407 302.91,171.984 303.385,171.984 303.385,254.958 
						368.939,258.863 					"/>
				</g>
				<polygon style="fill:#F4DC34;" points="314.022,204.203 305.98,204.203 305.98,171.984 314.022,169.2 				"/>
				<path style="fill:#F4DC34;" d="M266.104,189.859c-6.541,0-11.938,4.984-12.595,11.353h1.919
					c0.649-5.318,5.184-9.454,10.676-9.454c5.934,0,10.762,4.828,10.762,10.762c0,5.935-4.828,10.764-10.762,10.764
					c-4.54,0-8.424-2.829-10.003-6.814h-2.02c1.664,5.052,6.42,8.712,12.023,8.712c6.981,0,12.661-5.68,12.661-12.663
					C278.764,195.538,273.085,189.859,266.104,189.859z"/>
				<g>
					<path style="fill:#201C1E;" d="M280.364,274.134c-0.638-0.638-1.503-0.996-2.404-0.996h-12.722
						c-0.902,0-1.767,0.358-2.404,0.996l-3.864,3.864h25.259L280.364,274.134z"/>
					<rect x="269.331" y="261.06" style="fill:#45393F;" width="4.536" height="12.25"/>
					<polyline style="fill:#201C1E;" points="273.867,265.747 273.555,265.935 269.331,268.483 269.331,265.747 					"/>
					<path style="fill:#CFBB2D;" d="M278.816,258.895c0,3.986-3.231,7.217-7.217,7.217c-3.986,0-7.217-3.231-7.217-7.217
						c0-3.986,3.231-7.217,7.217-7.217C275.585,251.678,278.816,254.909,278.816,258.895z"/>
					<path style="fill:#F4DC34;" d="M264.478,257.944c0.958,2.093,3.058,3.555,5.51,3.555c3.352,0,6.07-2.718,6.07-6.07
						c0-0.944-0.234-1.827-0.619-2.624c-1.114-0.704-2.425-1.127-3.84-1.127C267.939,251.678,264.948,254.412,264.478,257.944z"/>
					<ellipse style="fill:#DDFFF0;" cx="271.599" cy="253.224" rx="1.907" ry="0.799"/>
					<rect x="263.957" y="275.21" style="fill:#576C8D;" width="3.286" height="2.32"/>
					<rect x="268.049" y="275.21" style="fill:#576C8D;" width="3.286" height="2.32"/>
				</g>
				<path style="fill:#F4DC34;" d="M156.697,198.4c0,1.224-0.992,2.217-2.217,2.217c-1.224,0-2.217-0.992-2.217-2.217
					s0.993-2.217,2.217-2.217C155.704,196.183,156.697,197.175,156.697,198.4z"/>
				<path style="fill:#F4DC34;" d="M156.697,206.985c0,1.224-0.992,2.217-2.217,2.217c-1.224,0-2.217-0.992-2.217-2.217
					c0-1.224,0.993-2.217,2.217-2.217C155.704,204.768,156.697,205.761,156.697,206.985z"/>
				<circle style="fill:#F4DC34;" cx="94.477" cy="180.09" r="2.217"/>
				<path style="fill:#F4DC34;" d="M94.477,169.289c-1.224,0-2.217,0.992-2.217,2.217c0,1.224,0.993,2.217,2.217,2.217
					c1.224,0,2.217-0.993,2.217-2.217C96.694,170.281,95.701,169.289,94.477,169.289z M102.301,173.722
					c1.224,0,2.217-0.993,2.217-2.217c0-1.224-0.992-2.217-2.217-2.217c-1.224,0-2.217,0.992-2.217,2.217
					C100.085,172.729,101.077,173.722,102.301,173.722z M102.301,177.874c-1.224,0-2.217,0.993-2.217,2.217
					c0,1.224,0.992,2.217,2.217,2.217c1.224,0,2.217-0.992,2.217-2.217C104.518,178.866,103.525,177.874,102.301,177.874z"/>
				<polygon style="fill:#201C1E;" points="333.546,397.427 323.076,377.544 323.076,368.024 311.297,288.912 321.119,288.912 				
					"/>
				<g>
					<polygon points="396.179,279.364 389.624,279.364 389.624,157.172 347.572,121.479 256.79,130.182 256.165,123.656 
						349.702,114.689 396.179,154.137 					"/>
				</g>
				
					<linearGradient id="SVGID_00000067196272580168281310000005122126181795418527_" gradientUnits="userSpaceOnUse" x1="394.4837" y1="156.3575" x2="343.9382" y2="190.5291">
					<stop  offset="0.0028" style="stop-color:#38455A"/>
					<stop  offset="1" style="stop-color:#A2B4C9"/>
				</linearGradient>
				<polygon style="fill:url(#SVGID_00000067196272580168281310000005122126181795418527_);" points="389.624,277.973 
					389.624,157.172 347.572,121.479 256.478,129.969 348.637,118.769 391.596,155.654 391.596,277.998 				"/>
				<path style="fill:#3D2C34;" d="M267.069,150.753l-21.061-21.062c-2.071-2.071-5.428-2.071-7.498,0l-21.062,21.062
					c-3.34,3.34-0.974,9.051,3.749,9.051h42.123C268.044,159.804,270.409,154.093,267.069,150.753z"/>
				<path style="fill:#3D2C34;" d="M255.976,122.137l-3.651,4.565c-0.359,0.449-0.286,1.104,0.163,1.462l4.565,3.651
					c0.724,0.579,1.786-0.006,1.684-0.928l-0.914-8.215C257.72,121.75,256.555,121.413,255.976,122.137z"/>
				
					<rect x="251.166" y="127.992" transform="matrix(0.7565 0.654 -0.654 0.7565 147.8889 -133.1004)" style="fill:#3D2C34;" width="3.03" height="8.107"/>
				
					<linearGradient id="SVGID_00000051376657865742206780000002990031463383050652_" gradientUnits="userSpaceOnUse" x1="244.4872" y1="163.382" x2="244.4872" y2="259.2946">
					<stop  offset="0.0028" style="stop-color:#DEFFC4"/>
					<stop  offset="1" style="stop-color:#A2B4C9;stop-opacity:0"/>
				</linearGradient>
				<polygon style="opacity:0.64;fill:url(#SVGID_00000051376657865742206780000002990031463383050652_);" points="221.197,159.804 
					140.337,260.135 348.637,263.414 263.32,159.804 				"/>
				<path style="fill:#656B6F;" d="M216.028,155.654h52.46c0.372-1.631-0.002-3.442-1.375-4.849h-49.711
					C216.03,152.212,215.656,154.023,216.028,155.654z"/>
				<g>
					<polygon style="fill:#3D5160;" points="51.844,265.678 51.844,252.998 40.862,246.657 29.88,252.998 29.88,265.678 
						40.862,272.019 					"/>
					<polygon style="fill:#3D5160;" points="62.195,282.633 62.195,273.123 53.958,268.367 45.722,273.123 45.722,282.633 
						53.958,287.389 					"/>
					<polygon style="fill:#A2B4C9;" points="244.615,355.126 244.615,346.104 236.802,341.594 228.99,346.104 228.99,355.126 
						236.802,359.636 					"/>
					<polygon style="fill:#A2B4C9;" points="258.97,339.106 258.97,326.868 248.371,320.75 237.773,326.868 237.773,339.106 
						248.371,345.225 					"/>
					<polygon style="fill:#A2B4C9;" points="267.084,361.051 267.084,348.814 256.486,342.695 245.888,348.814 245.888,361.051 
						256.486,367.17 					"/>
				</g>
				<path style="fill:#201C1E;" d="M286.239,277.998c0,0-0.136-8.757,8.297-8.757l1.136,2.167v6.59H286.239z"/>
				<rect x="376.965" y="155.654" style="fill:#3D2C34;" width="7.274" height="111.75"/>
				<path style="fill:#4B4F53;" d="M250.053,140.073c-1.286,1.487-4.42,0.884-7.001-1.347c-2.581-2.231-3.631-5.245-2.345-6.732
					s4.42-0.884,7.001,1.347C250.289,135.571,251.339,138.585,250.053,140.073z"/>
				<path style="fill:#EDEAE4;" d="M420.672,214.922c-0.579-3.943-4.246-6.671-8.189-6.091c-3.943,0.579-6.67,4.246-6.091,8.189
					c0.579,3.943,4.246,6.67,8.189,6.091C418.524,222.532,421.251,218.865,420.672,214.922z M432.118,205.946
					c-3.944,0.579-6.671,4.246-6.091,8.189c0.579,3.943,4.246,6.67,8.189,6.091c3.943-0.579,6.67-4.246,6.091-8.189
					C439.728,208.093,436.062,205.366,432.118,205.946z M426.215,221.97c-3.944,0.579-6.671,4.246-6.091,8.189
					c0.579,3.943,4.246,6.671,8.189,6.091c3.943-0.579,6.67-4.246,6.091-8.189C433.824,224.118,430.158,221.391,426.215,221.97z"/>
				<g>
					<path style="fill:#201C1E;" d="M96.835,318.076l-14.152-0.608c-5.962-0.256-14.193-1.312-16.812-7.533
						c-0.847-2.012-0.913-4.266-0.908-6.221c0.012-3.944,0.312-7.098,0.945-9.925c0.335-1.498,0.783-2.981,1.217-4.415
						c0.385-1.276,0.783-2.595,1.096-3.903c3.102-13.028,3.144-27.323,0.117-39.222c-1.123-4.411-2.472-8.453-3.777-12.362
						c-3.212-9.62-6.245-18.704-4.516-30.11c0.633-4.176,2.511-7.347,5.58-9.426c6.759-4.575,18.782-1.877,19.209-1.776l-0.25,1.063
						c-0.098-0.019-11.99-2.684-18.351,1.623c-2.804,1.899-4.523,4.818-5.109,8.679c-1.689,11.148,1.166,19.699,4.472,29.6
						c1.311,3.929,2.669,7.992,3.799,12.441c3.07,12.063,3.029,26.549-0.113,39.743c-0.32,1.342-0.723,2.676-1.113,3.967
						c-0.428,1.417-0.871,2.881-1.196,4.338c-0.617,2.749-0.908,5.828-0.92,9.69c-0.005,1.846,0.054,3.969,0.823,5.794
						c2.378,5.646,10.186,6.622,15.852,6.863l14.152,0.608L96.835,318.076z"/>
				</g>
				<path style="fill:#E8BEC5;" d="M198.383,100.803H80.193v-8.397c0-2.752,2.231-4.983,4.983-4.983h113.207V100.803z"/>
				<polygon style="fill:#201C1E;" points="302.91,289.555 302.91,287.07 425.524,287.07 423.559,289.555 				"/>
				<g>
					<g>
						<path style="fill:#3D5160;" d="M403.041,226.757c0.052-1.418,0.113-2.88,0.711-4.166c0.598-1.287,1.876-2.367,3.292-2.282
							c8.499,4.74-2.274,50.163,3.138,28.91c0.57-2.24,1.913-4.125,3.357-5.93c0.644-0.804,0.957-2.693,2.243-3.27
							c1.179-0.53,2.606,0.394,3.069,1.601c0.464,1.206,0.228,2.558-0.064,3.817c-1.802,7.78-5.538,15.104-10.778,21.13
							c-0.34,0.391-0.757,0.808-1.274,0.789c-0.562-0.021-0.958-0.541-1.252-1.02c-2.494-4.064-4.306-7.141-6.688-11.271
							c-2.981-5.168-7.318-8.217-12.867-10.394c-3.388-1.329-0.936-6.198,0.902-6.135c2.275,0.077,4.592,0.8,6.54,1.939
							c9.571,5.595,11.061,17.417,10.888,16.536c-0.209-1.066-0.391-2.137-0.55-3.212c-0.318-2.151-0.539-4.315-0.689-6.483
							c-0.302-4.378-0.31-8.771-0.213-13.157C402.863,231.691,402.951,229.223,403.041,226.757z"/>
						<g>
							<polygon style="fill:#222C33;" points="406.535,259.345 405.828,224.494 406.375,224.481 407.081,259.333 							"/>
						</g>
						<g>
							<polygon style="fill:#222C33;" points="410.024,259.448 409.524,259.226 416.972,242.65 417.471,242.871 							"/>
						</g>
						<g>
							<path style="fill:#222C33;" d="M403.225,259.418c-3.37-11.071-16.35-18.245-16.481-18.318l0.26-0.478
								c0.132,0.07,13.31,7.356,16.741,18.638L403.225,259.418z"/>
						</g>
					</g>
					<path style="fill:#3D2C34;" d="M416.342,259.338H398.68c-0.991,0-1.66,1.013-1.269,1.925l3.631,15.873
						c0.218,0.508,0.717,0.837,1.269,0.837h10.456c0.553,0,1.052-0.329,1.27-0.837l3.575-15.873
						C418.002,260.352,417.334,259.338,416.342,259.338z"/>
				</g>
				
					<linearGradient id="SVGID_00000047043438212694317240000010448579825662796978_" gradientUnits="userSpaceOnUse" x1="417.6988" y1="265.4236" x2="382.2204" y2="265.4236">
					<stop  offset="0.0028" style="stop-color:#38455A"/>
					<stop  offset="1" style="stop-color:#A2B4C9"/>
				</linearGradient>
				<polygon style="fill:url(#SVGID_00000047043438212694317240000010448579825662796978_);" points="399.131,267.856 
					416.338,267.856 417.434,262.991 398.018,262.991 				"/>
				<g>
					<path style="fill:#2D4144;" d="M45.722,342.713l7.744,51.963c0.486,3.264,3.289,5.68,6.59,5.68h7.847v-56.122L45.722,342.713z"
						/>
					<path style="fill:#3A5559;" d="M90.084,342.713l-7.744,51.963c-0.487,3.264-3.289,5.68-6.59,5.68h-7.847v-56.122
						L90.084,342.713z"/>
					<path style="fill:#4C7077;" d="M90.084,342.713c0,3.427-9.931,6.204-22.181,6.204s-22.181-2.778-22.181-6.204
						c0-3.426,9.931-6.204,22.181-6.204S90.084,339.287,90.084,342.713z"/>
					<path style="fill:#201C1E;" d="M84.194,342.713c0,2.517-7.294,4.557-16.291,4.557c-8.997,0-16.291-2.04-16.291-4.557
						c0-2.516,7.294-4.557,16.291-4.557C76.9,338.157,84.194,340.197,84.194,342.713z"/>
				</g>
			</g>
			<path style="fill:#E8BEC5;" d="M184.031,62.617c-4.491,0-8.132,3.64-8.132,8.132c0,4.491,3.641,8.132,8.132,8.132
				c4.491,0,8.132-3.641,8.132-8.132C192.163,66.258,188.523,62.617,184.031,62.617z M212.736,78.881
				c4.491,0,8.132-3.641,8.132-8.132c0-4.491-3.641-8.132-8.132-8.132c-4.491,0-8.132,3.64-8.132,8.132
				C204.604,75.24,208.244,78.881,212.736,78.881z M212.736,85.981c-4.491,0-8.132,3.641-8.132,8.132
				c0,4.491,3.641,8.132,8.132,8.132c4.491,0,8.132-3.641,8.132-8.132C220.867,89.622,217.226,85.981,212.736,85.981z"/>
			<path style="fill:#64959D;" d="M420.082,328.271c0,3.991,3.235,7.226,7.226,7.226c3.991,0,7.226-3.236,7.226-7.226
				c0-3.991-3.235-7.226-7.226-7.226C423.317,321.045,420.082,324.28,420.082,328.271z M434.534,302.763
				c0-3.991-3.235-7.226-7.226-7.226c-3.991,0-7.226,3.235-7.226,7.226c0,3.991,3.235,7.226,7.226,7.226
				C431.299,309.99,434.534,306.755,434.534,302.763z M420.082,353.193c0,3.991,3.235,7.226,7.226,7.226
				c3.991,0,7.226-3.235,7.226-7.226c0-3.991-3.235-7.226-7.226-7.226C423.317,345.967,420.082,349.203,420.082,353.193z"/>
		</g>
	</g>
</g>
</svg>
